<svg width="36" height="36" viewBox="0 0 36 36" fill="none" xmlns="http://www.w3.org/2000/svg">
<g clip-path="url(#clip0_2_731)">
<path d="M18.0001 32.2464H7.15006C6.52784 32.2464 6.02229 32.0325 5.6334 31.6047C5.24451 31.1769 5.05007 30.6908 5.05007 30.1464V15.563L16.0167 5.87971C16.5612 5.41304 17.2223 5.17971 18.0001 5.17971C18.7778 5.17971 19.439 5.41304 19.9834 5.87971L33.8667 18.1297C34.0223 18.2853 34.2167 18.3436 34.4501 18.3047C34.6834 18.2658 34.8778 18.1686 35.0334 18.013C35.189 17.8575 35.2473 17.663 35.2084 17.4297C35.1695 17.1964 35.0723 17.0019 34.9167 16.8464L32.5834 14.863V6.57971C32.5834 5.41304 32.1556 4.40193 31.3001 3.54637C30.4445 2.69082 29.4334 2.28248 28.2667 2.32137C27.1001 2.36026 26.1084 2.78804 25.2917 3.60471C24.4751 4.42137 24.0278 5.41304 23.9501 6.57971V7.27971L21.0334 4.71304C20.1778 3.93526 19.1667 3.54637 18.0001 3.54637C16.8334 3.54637 15.8223 3.93526 14.9667 4.71304L1.0834 16.8464C0.850065 17.0019 0.733398 17.1964 0.733398 17.4297C0.733398 17.663 0.811176 17.8575 0.966732 18.013C1.12229 18.1686 1.31673 18.2658 1.55007 18.3047C1.7834 18.3436 1.97784 18.2853 2.1334 18.1297L3.41673 17.0797V30.1464C3.41673 31.1575 3.78618 32.0325 4.52507 32.7714C5.26395 33.5103 6.13895 33.8797 7.15006 33.8797H18.0001C18.2334 33.8797 18.4278 33.8019 18.5834 33.6464C18.739 33.4908 18.8167 33.2964 18.8167 33.063C18.8167 32.8297 18.739 32.6353 18.5834 32.4797C18.4278 32.3242 18.2334 32.2464 18.0001 32.2464ZM25.5834 6.57971C25.6612 5.80193 25.9528 5.16026 26.4584 4.65471C26.964 4.14915 27.5862 3.91582 28.3251 3.95471C29.064 3.9936 29.6862 4.26582 30.1917 4.77137C30.6973 5.27693 30.9501 5.87971 30.9501 6.57971V13.3464L25.5834 8.67971V6.57971ZM18.0001 10.5464C16.9112 10.5464 15.9778 10.9353 15.2001 11.713C14.4223 12.4908 14.0334 13.4242 14.0334 14.513C14.0334 15.6019 14.4223 16.5353 15.2001 17.313C15.9778 18.0908 16.9112 18.4797 18.0001 18.4797C19.089 18.4797 20.0223 18.0908 20.8001 17.313C21.5778 16.5353 21.9667 15.6019 21.9667 14.513C21.9667 13.4242 21.5778 12.4908 20.8001 11.713C20.0223 10.9353 19.089 10.5464 18.0001 10.5464ZM20.3334 14.513C20.3334 15.213 20.1001 15.7769 19.6334 16.2047C19.1667 16.6325 18.6223 16.8464 18.0001 16.8464C17.3778 16.8464 16.8334 16.6325 16.3667 16.2047C15.9001 15.7769 15.6667 15.2325 15.6667 14.5714C15.6667 13.9103 15.9001 13.3464 16.3667 12.8797C16.8334 12.413 17.3778 12.1797 18.0001 12.1797C18.6223 12.1797 19.1667 12.413 19.6334 12.8797C20.1001 13.3464 20.3334 13.8908 20.3334 14.513ZM35.0334 32.5964L32.2334 29.6797C32.9334 28.6686 33.2834 27.5408 33.2834 26.2964C33.2834 24.7408 32.7195 23.4186 31.5917 22.3297C30.464 21.2408 29.1223 20.6964 27.5667 20.6964C26.0112 20.6964 24.6695 21.2408 23.5417 22.3297C22.414 23.4186 21.8501 24.7603 21.8501 26.3547C21.8501 27.9492 22.414 29.2908 23.5417 30.3797C24.6695 31.4686 26.0112 32.013 27.5667 32.013C28.889 32.013 30.0556 31.6242 31.0667 30.8464L33.7501 33.6464C33.9056 33.8019 34.1001 33.8992 34.3334 33.938C34.5667 33.9769 34.7806 33.9186 34.9751 33.763C35.1695 33.6075 35.2667 33.413 35.2667 33.1797C35.2667 32.9464 35.189 32.7519 35.0334 32.5964ZM27.5667 30.3797C26.4778 30.3797 25.5251 29.9908 24.7084 29.213C23.8917 28.4353 23.4834 27.4825 23.4834 26.3547C23.4834 25.2269 23.8917 24.2742 24.7084 23.4964C25.5251 22.7186 26.4973 22.3297 27.6251 22.3297C28.7528 22.3297 29.7056 22.7186 30.4834 23.4964C31.2612 24.2742 31.6501 25.2269 31.6501 26.3547C31.6501 27.4825 31.2612 28.4353 30.4834 29.213C29.7056 29.9908 28.7334 30.3797 27.5667 30.3797Z" fill="black"/>
</g>
<defs>
<clipPath id="clip0_2_731">
<rect width="35" height="35" fill="white" transform="matrix(1 0 0 -1 0.5 35.6299)"/>
</clipPath>
</defs>
</svg>
