<svg width="19" height="19" viewBox="0 0 19 19" fill="none" xmlns="http://www.w3.org/2000/svg">
<g clip-path="url(#clip0_2_499)">
<path d="M10.0099 13.19C10.1299 13.19 10.2199 13.16 10.2799 13.1C10.3399 13.04 10.3699 12.95 10.3699 12.83V11.21C10.3699 11.05 10.3099 10.94 10.1899 10.88C10.0699 10.82 9.94994 10.82 9.82994 10.88C9.70994 10.94 9.64994 11.05 9.64994 11.21V12.83C9.64994 12.95 9.68994 13.04 9.76994 13.1C9.84994 13.16 9.92994 13.19 10.0099 13.19ZM10.0099 5.81002C10.1299 5.81002 10.2199 5.78002 10.2799 5.72002C10.3399 5.66002 10.3699 5.59002 10.3699 5.51002V3.83002C10.3699 3.71002 10.3099 3.62002 10.1899 3.56002C10.0699 3.50002 9.94994 3.50002 9.82994 3.56002C9.70994 3.62002 9.64994 3.71002 9.64994 3.83002V5.51002C9.64994 5.59002 9.68994 5.66002 9.76994 5.72002C9.84994 5.78002 9.92994 5.81002 10.0099 5.81002ZM10.0099 9.53002C10.1299 9.53002 10.2199 9.49002 10.2799 9.41002C10.3399 9.33002 10.3699 9.25002 10.3699 9.17002V7.55002C10.3699 7.43002 10.3399 7.34002 10.2799 7.28002C10.2199 7.22002 10.1399 7.19002 10.0399 7.19002C9.93994 7.19002 9.84994 7.22002 9.76994 7.28002C9.68994 7.34002 9.64994 7.43002 9.64994 7.55002V9.17002C9.64994 9.25002 9.68994 9.33002 9.76994 9.41002C9.84994 9.49002 9.92994 9.53002 10.0099 9.53002ZM12.4699 5.81002C12.5499 5.81002 12.6299 5.78002 12.7099 5.72002C12.7899 5.66002 12.8299 5.59002 12.8299 5.51002V3.83002C12.8299 3.75002 12.7899 3.67002 12.7099 3.59002C12.6299 3.51002 12.5499 3.47002 12.4699 3.47002C12.3899 3.47002 12.3099 3.51002 12.2299 3.59002C12.1499 3.67002 12.1099 3.75002 12.1099 3.83002V5.51002C12.1099 5.59002 12.1499 5.66002 12.2299 5.72002C12.3099 5.78002 12.3899 5.81002 12.4699 5.81002ZM12.4699 9.53002C12.5499 9.53002 12.6299 9.49002 12.7099 9.41002C12.7899 9.33002 12.8299 9.25002 12.8299 9.17002V7.55002C12.8299 7.43002 12.7899 7.34002 12.7099 7.28002C12.6299 7.22002 12.5499 7.19002 12.4699 7.19002C12.3899 7.19002 12.3099 7.22002 12.2299 7.28002C12.1499 7.34002 12.1099 7.43002 12.1099 7.55002V9.17002C12.1099 9.25002 12.1499 9.33002 12.2299 9.41002C12.3099 9.49002 12.3899 9.53002 12.4699 9.53002ZM12.4699 13.19C12.5499 13.19 12.6299 13.16 12.7099 13.1C12.7899 13.04 12.8299 12.95 12.8299 12.83V11.21C12.8299 11.09 12.7899 11 12.7099 10.94C12.6299 10.88 12.5499 10.85 12.4699 10.85C12.3899 10.85 12.3099 10.88 12.2299 10.94C12.1499 11 12.1099 11.09 12.1099 11.21V12.83C12.1099 12.95 12.1499 13.04 12.2299 13.1C12.3099 13.16 12.3899 13.19 12.4699 13.19ZM16.5499 14.51H16.8499C16.9299 14.51 16.9999 14.48 17.0599 14.42C17.1199 14.36 17.1499 14.28 17.1499 14.18C17.1499 14.08 17.1199 14 17.0599 13.94C16.9999 13.88 16.9299 13.85 16.8499 13.85H16.5499C16.4299 13.85 16.3399 13.88 16.2799 13.94C16.2199 14 16.1899 14.08 16.1899 14.18C16.1899 14.28 16.2199 14.36 16.2799 14.42C16.3399 14.48 16.4299 14.51 16.5499 14.51ZM16.5499 12.53H16.8499C16.9299 12.53 16.9999 12.5 17.0599 12.44C17.1199 12.38 17.1499 12.3 17.1499 12.2C17.1499 12.1 17.1199 12.01 17.0599 11.93C16.9999 11.85 16.9299 11.81 16.8499 11.81H16.5499C16.4299 11.81 16.3399 11.85 16.2799 11.93C16.2199 12.01 16.1899 12.1 16.1899 12.2C16.1899 12.3 16.2199 12.38 16.2799 12.44C16.3399 12.5 16.4299 12.53 16.5499 12.53ZM16.5499 16.49H16.8499C16.9299 16.49 16.9999 16.45 17.0599 16.37C17.1199 16.29 17.1499 16.21 17.1499 16.13C17.1499 16.05 17.1199 15.97 17.0599 15.89C16.9999 15.81 16.9299 15.77 16.8499 15.77H16.5499C16.4299 15.77 16.3399 15.81 16.2799 15.89C16.2199 15.97 16.1899 16.05 16.1899 16.13C16.1899 16.21 16.2199 16.29 16.2799 16.37C16.3399 16.45 16.4299 16.49 16.5499 16.49ZM5.86994 10.55H6.16994C6.24994 10.55 6.31994 10.52 6.37994 10.46C6.43994 10.4 6.46994 10.32 6.46994 10.22C6.46994 10.12 6.43994 10.04 6.37994 9.98002C6.31994 9.92002 6.24994 9.89002 6.16994 9.89002H5.86994C5.74994 9.89002 5.65994 9.92002 5.59994 9.98002C5.53994 10.04 5.50994 10.12 5.50994 10.22C5.50994 10.32 5.53994 10.4 5.59994 10.46C5.65994 10.52 5.74994 10.55 5.86994 10.55ZM5.86994 8.57002H6.16994C6.24994 8.57002 6.31994 8.54002 6.37994 8.48002C6.43994 8.42002 6.46994 8.34002 6.46994 8.24002C6.46994 8.14002 6.43994 8.06002 6.37994 8.00002C6.31994 7.94002 6.24994 7.91002 6.16994 7.91002H5.86994C5.74994 7.91002 5.65994 7.94002 5.59994 8.00002C5.53994 8.06002 5.50994 8.14002 5.50994 8.24002C5.50994 8.34002 5.53994 8.42002 5.59994 8.48002C5.65994 8.54002 5.74994 8.57002 5.86994 8.57002ZM5.86994 12.53H6.16994C6.24994 12.53 6.31994 12.5 6.37994 12.44C6.43994 12.38 6.46994 12.3 6.46994 12.2C6.46994 12.1 6.43994 12.01 6.37994 11.93C6.31994 11.85 6.24994 11.81 6.16994 11.81H5.86994C5.70994 11.81 5.59994 11.87 5.53994 11.99C5.47994 12.11 5.47994 12.23 5.53994 12.35C5.59994 12.47 5.70994 12.53 5.86994 12.53ZM18.4699 8.99002H15.2299V1.55002C15.2299 1.43002 15.1999 1.34002 15.1399 1.28002C15.0799 1.22002 14.9899 1.19002 14.8699 1.19002H7.60994C7.52994 1.19002 7.44994 1.23002 7.36994 1.31002C7.28994 1.39002 7.24994 1.47002 7.24994 1.55002V5.87002H4.36994C4.28994 5.87002 4.20994 5.90002 4.12994 5.96002C4.04994 6.02002 4.00994 6.11002 4.00994 6.23002V10.49C4.00994 10.61 4.04994 10.7 4.12994 10.76C4.20994 10.82 4.29994 10.85 4.39994 10.85C4.49994 10.85 4.57994 10.82 4.63994 10.76C4.69994 10.7 4.72994 10.61 4.72994 10.49V6.53002H7.24994V18.11H4.72994C4.60994 18.11 4.51994 18.15 4.45994 18.23C4.39994 18.31 4.36994 18.4 4.36994 18.5C4.36994 18.6 4.39994 18.68 4.45994 18.74C4.51994 18.8 4.60994 18.83 4.72994 18.83H17.2699C17.7099 18.83 18.0799 18.68 18.3799 18.38C18.6799 18.08 18.8299 17.73 18.8299 17.33V9.35002C18.8299 9.27002 18.7899 9.19002 18.7099 9.11002C18.6299 9.03002 18.5499 8.99002 18.4699 8.99002ZM10.3699 18.11V15.41H12.1099V18.11H10.3699ZM14.5099 18.11H12.8299V15.05C12.8299 14.93 12.7899 14.84 12.7099 14.78C12.6299 14.72 12.5499 14.69 12.4699 14.69H10.0099C9.92994 14.69 9.84994 14.72 9.76994 14.78C9.68994 14.84 9.64994 14.93 9.64994 15.05V18.11H7.96994V1.85002H14.5099V18.11ZM18.1099 17.33C18.1099 17.53 18.0299 17.72 17.8699 17.9C17.7099 18.08 17.5099 18.17 17.2699 18.17H15.2299V9.71002H18.1099V17.33ZM5.32994 14.03C5.32994 13.43 5.02994 12.85 4.42994 12.29C4.10994 11.97 3.76994 11.71 3.40994 11.51C3.32994 11.47 3.22994 11.47 3.10994 11.51C2.78994 11.71 2.44994 11.97 2.08994 12.29C1.48994 12.85 1.18994 13.44 1.18994 14.06C1.18994 14.68 1.34994 15.23 1.66994 15.71C1.98994 16.19 2.40994 16.47 2.92994 16.55V18.47C2.92994 18.59 2.95994 18.68 3.01994 18.74C3.07994 18.8 3.15994 18.83 3.25994 18.83C3.35994 18.83 3.43994 18.8 3.49994 18.74C3.55994 18.68 3.58994 18.59 3.58994 18.47V16.55C4.10994 16.47 4.52994 16.19 4.84994 15.71C5.16994 15.23 5.32994 14.67 5.32994 14.03ZM1.84994 14.03C1.84994 13.71 2.02994 13.35 2.38994 12.95C2.62994 12.71 2.92994 12.47 3.28994 12.23C3.60994 12.47 3.88994 12.71 4.12994 12.95C4.48994 13.35 4.66994 13.71 4.66994 14.03C4.66994 14.47 4.56994 14.86 4.36994 15.2C4.16994 15.54 3.90994 15.75 3.58994 15.83V15.05C3.58994 14.93 3.55994 14.84 3.49994 14.78C3.43994 14.72 3.35994 14.69 3.25994 14.69C3.15994 14.69 3.07994 14.72 3.01994 14.78C2.95994 14.84 2.92994 14.93 2.92994 15.05V15.83C2.60994 15.75 2.34994 15.54 2.14994 15.2C1.94994 14.86 1.84994 14.47 1.84994 14.03Z" fill="#1A1A1A"/>
</g>
<defs>
<clipPath id="clip0_2_499">
<rect width="18" height="18" fill="white" transform="matrix(1 0 0 -1 0.949951 18.89)"/>
</clipPath>
</defs>
</svg>
