<svg width="19" height="19" viewBox="0 0 19 19" fill="none" xmlns="http://www.w3.org/2000/svg">
<g clip-path="url(#clip0_2_504)">
<path d="M13.07 13.43C12.91 13.43 12.8 13.35 12.74 13.19C12.68 13.03 12.71 12.89 12.83 12.77C12.95 12.65 13.09 12.64 13.25 12.74C13.41 12.84 13.47 12.95 13.43 13.07C13.39 13.19 13.34 13.28 13.28 13.34C13.22 13.4 13.15 13.43 13.07 13.43ZM11.09 6.83004H7.84997C7.72997 6.83004 7.63997 6.86004 7.57997 6.92004C7.51997 6.98004 7.48997 7.07004 7.48997 7.19004V11.63C7.48997 11.75 7.51997 11.84 7.57997 11.9C7.63997 11.96 7.72997 11.99 7.84997 11.99H11.09C11.21 11.99 11.3 11.96 11.36 11.9C11.42 11.84 11.45 11.75 11.45 11.63V7.19004C11.45 7.07004 11.42 6.98004 11.36 6.92004C11.3 6.86004 11.21 6.83004 11.09 6.83004ZM8.14997 7.55004H9.10997V11.33H8.14997V7.55004ZM10.79 11.33H9.82997V7.55004H10.79V11.33ZM18.29 10.07L13.43 7.19004V4.61004C13.43 4.49004 13.39 4.39004 13.31 4.31004L9.70997 1.49004C9.54997 1.41004 9.38997 1.41004 9.22997 1.49004L5.62997 4.31004C5.54997 4.39004 5.50997 4.49004 5.50997 4.61004V7.19004L0.649971 10.07C0.529971 10.11 0.469971 10.21 0.469971 10.37V12.29C0.469971 12.41 0.509971 12.5 0.589971 12.56C0.669971 12.62 0.739971 12.65 0.799971 12.65C0.859971 12.65 0.929971 12.63 1.00997 12.59L1.24997 12.47V17.99C1.24997 18.07 1.27997 18.15 1.33997 18.23C1.39997 18.31 1.48997 18.35 1.60997 18.35H17.33C17.45 18.35 17.54 18.31 17.6 18.23C17.66 18.15 17.69 18.07 17.69 17.99V12.47L17.93 12.59C18.01 12.63 18.08 12.65 18.14 12.65C18.2 12.65 18.27 12.62 18.35 12.56C18.43 12.5 18.47 12.41 18.47 12.29V10.37C18.47 10.21 18.41 10.11 18.29 10.07ZM9.46997 2.21004L12.71 4.79004V5.93004L9.70997 3.59004C9.54997 3.47004 9.38997 3.47004 9.22997 3.59004L6.22997 5.93004V4.79004L9.46997 2.21004ZM1.18997 10.55L5.50997 7.97004V9.11004L1.18997 11.69V10.55ZM1.96997 13.73H3.46997V15.83H1.96997V13.73ZM1.96997 16.49H3.82997C3.94997 16.49 4.03997 16.46 4.09997 16.4C4.15997 16.34 4.18997 16.25 4.18997 16.13V13.37C4.18997 13.25 4.15997 13.16 4.09997 13.1C4.03997 13.04 3.94997 13.01 3.82997 13.01H1.96997V12.05L5.50997 9.95004V17.63H1.96997V16.49ZM8.62997 17.63V13.79H10.31V17.63H8.62997ZM16.97 15.83H15.35V13.73H16.97V15.83ZM16.97 13.01H14.99C14.91 13.01 14.84 13.04 14.78 13.1C14.72 13.16 14.69 13.25 14.69 13.37V16.13C14.69 16.25 14.72 16.34 14.78 16.4C14.84 16.46 14.91 16.49 14.99 16.49H16.97V17.63H13.43V14.63C13.43 14.55 13.4 14.47 13.34 14.39C13.28 14.31 13.2 14.27 13.1 14.27C13 14.27 12.91 14.31 12.83 14.39C12.75 14.47 12.71 14.55 12.71 14.63V17.63H10.97V13.49C10.97 13.37 10.94 13.28 10.88 13.22C10.82 13.16 10.75 13.13 10.67 13.13H8.26997C8.18997 13.13 8.11997 13.16 8.05997 13.22C7.99997 13.28 7.96997 13.37 7.96997 13.49V17.63H6.22997V6.83004L9.46997 4.31004L12.71 6.83004V11.45C12.71 11.57 12.75 11.66 12.83 11.72C12.91 11.78 13 11.81 13.1 11.81C13.2 11.81 13.28 11.78 13.34 11.72C13.4 11.66 13.43 11.57 13.43 11.45V9.95004L16.97 12.05V13.01ZM17.75 11.69L13.43 9.11004V7.97004L17.75 10.55V11.69Z" fill="#1A1A1A"/>
</g>
<defs>
<clipPath id="clip0_2_504">
<rect width="18" height="18" fill="white" transform="matrix(1 0 0 -1 0.469971 18.89)"/>
</clipPath>
</defs>
</svg>
