<svg width="19" height="19" viewBox="0 0 19 19" fill="none" xmlns="http://www.w3.org/2000/svg">
<g clip-path="url(#clip0_2_494)">
<path d="M2.51995 10.97C2.39995 10.97 2.30995 11 2.24995 11.06C2.18995 11.12 2.15995 11.21 2.15995 11.33V18.11C2.15995 18.23 2.18995 18.33 2.24995 18.41C2.30995 18.49 2.39995 18.53 2.51995 18.53H16.02C16.1 18.53 16.18 18.49 16.26 18.41C16.34 18.33 16.38 18.23 16.38 18.11V12.59C16.38 12.47 16.34 12.38 16.26 12.32C16.18 12.26 16.09 12.23 15.99 12.23C15.89 12.23 15.81 12.26 15.75 12.32C15.69 12.38 15.66 12.47 15.66 12.59V17.75H2.87995V11.33C2.87995 11.21 2.83995 11.12 2.75995 11.06C2.67995 11 2.59995 10.97 2.51995 10.97ZM4.01995 12.53C3.89995 12.53 3.80995 12.56 3.74995 12.62C3.68995 12.68 3.65995 12.77 3.65995 12.89V18.11C3.65995 18.23 3.68995 18.33 3.74995 18.41C3.80995 18.49 3.89995 18.53 4.01995 18.53H8.15995C8.23995 18.53 8.31995 18.49 8.39995 18.41C8.47995 18.33 8.51995 18.23 8.51995 18.11V14.03C8.51995 13.95 8.47995 13.87 8.39995 13.79C8.31995 13.71 8.22995 13.67 8.12995 13.67C8.02995 13.67 7.93995 13.71 7.85995 13.79C7.77995 13.87 7.73995 13.95 7.73995 14.03V17.75H4.37995V13.25H8.15995C8.23995 13.25 8.31995 13.22 8.39995 13.16C8.47995 13.1 8.51995 13.01 8.51995 12.89C8.51995 12.77 8.47995 12.68 8.39995 12.62C8.31995 12.56 8.23995 12.53 8.15995 12.53H4.01995ZM10.02 12.53C9.89995 12.53 9.80995 12.56 9.74995 12.62C9.68995 12.68 9.65995 12.77 9.65995 12.89V16.25C9.65995 16.37 9.68995 16.46 9.74995 16.52C9.80995 16.58 9.89995 16.61 10.02 16.61H14.52C14.6 16.61 14.68 16.58 14.76 16.52C14.84 16.46 14.88 16.37 14.88 16.25V14.03C14.88 13.95 14.84 13.87 14.76 13.79C14.68 13.71 14.59 13.67 14.49 13.67C14.39 13.67 14.31 13.71 14.25 13.79C14.19 13.87 14.16 13.95 14.16 14.03V15.89H10.38V13.25H14.52C14.6 13.25 14.68 13.22 14.76 13.16C14.84 13.1 14.88 13.01 14.88 12.89C14.88 12.77 14.84 12.68 14.76 12.62C14.68 12.56 14.6 12.53 14.52 12.53H10.02ZM9.23995 8.51003C8.79995 8.51003 8.42995 8.67003 8.12995 8.99003C7.82995 9.31003 7.67995 9.69003 7.67995 10.13C7.67995 10.57 7.82995 10.95 8.12995 11.27C8.42995 11.59 8.79995 11.75 9.23995 11.75C9.67995 11.75 10.06 11.59 10.38 11.27C10.7 10.95 10.86 10.57 10.86 10.13C10.86 10.01 10.82 9.92003 10.74 9.86003C10.66 9.80003 10.57 9.77003 10.47 9.77003C10.37 9.77003 10.28 9.80003 10.2 9.86003C10.12 9.92003 10.08 10.01 10.08 10.13C10.08 10.37 9.99995 10.57 9.83995 10.73C9.67995 10.89 9.47995 10.97 9.23995 10.97C8.99995 10.97 8.79995 10.89 8.63995 10.73C8.47995 10.57 8.39995 10.37 8.39995 10.13C8.39995 9.89003 8.47995 9.69003 8.63995 9.53003C8.79995 9.37003 8.99995 9.29003 9.23995 9.29003C9.47995 9.29003 9.67995 9.37003 9.83995 9.53003C9.91995 9.61003 10.01 9.65003 10.11 9.65003C10.21 9.65003 10.3 9.61003 10.38 9.53003C10.46 9.45003 10.5 9.36003 10.5 9.26003C10.5 9.16003 10.46 9.07003 10.38 8.99003C10.06 8.67003 9.67995 8.51003 9.23995 8.51003ZM11.7 13.85C11.54 13.85 11.44 13.93 11.4 14.09L10.98 14.69C10.94 14.81 10.93 14.92 10.95 15.02C10.97 15.12 11.03 15.19 11.13 15.23C11.23 15.27 11.33 15.28 11.43 15.26C11.53 15.24 11.6 15.19 11.64 15.11L12 14.45C12.08 14.37 12.1 14.28 12.06 14.18C12.02 14.08 11.97 14.01 11.91 13.97C11.85 13.93 11.78 13.89 11.7 13.85ZM13.2 13.85C13.04 13.85 12.94 13.93 12.9 14.09L12.48 14.69C12.44 14.81 12.43 14.92 12.45 15.02C12.47 15.12 12.53 15.19 12.63 15.23C12.73 15.27 12.83 15.28 12.93 15.26C13.03 15.24 13.1 15.19 13.14 15.11L13.5 14.45C13.58 14.37 13.6 14.28 13.56 14.18C13.52 14.08 13.47 14.01 13.41 13.97C13.35 13.93 13.28 13.89 13.2 13.85ZM15.42 1.25003C14.78 1.25003 14.22 1.49003 13.74 1.97003C13.26 2.45003 13.02 3.03003 13.02 3.71003C13.02 4.39003 13.26 4.96003 13.74 5.42003C14.22 5.88003 14.79 6.11003 15.45 6.11003C16.11 6.11003 16.68 5.88003 17.16 5.42003C17.64 4.96003 17.88 4.39003 17.88 3.71003C17.88 3.03003 17.64 2.45003 17.16 1.97003C16.68 1.49003 16.1 1.25003 15.42 1.25003ZM15.42 2.03003C15.9 2.03003 16.31 2.19003 16.65 2.51003C16.99 2.83003 17.16 3.23003 17.16 3.71003C17.16 4.19003 16.99 4.59003 16.65 4.91003C16.31 5.23003 15.91 5.39003 15.45 5.39003C14.99 5.39003 14.59 5.23003 14.25 4.91003C13.91 4.59003 13.74 4.19003 13.74 3.71003C13.74 3.23003 13.91 2.83003 14.25 2.51003C14.59 2.19003 14.98 2.03003 15.42 2.03003ZM2.57995 4.43003C2.49995 4.43003 2.41995 4.46003 2.33995 4.52003C2.25995 4.58003 2.21995 4.67003 2.21995 4.79003V9.05003C2.21995 9.13003 2.25995 9.21003 2.33995 9.29003C2.41995 9.37003 2.50995 9.41003 2.60995 9.41003C2.70995 9.41003 2.78995 9.37003 2.84995 9.29003C2.90995 9.21003 2.93995 9.13003 2.93995 9.05003V5.15003H4.43995V7.37003C4.43995 7.49003 4.47995 7.59003 4.55995 7.67003C4.63995 7.75003 4.72995 7.79003 4.82995 7.79003C4.92995 7.79003 5.01995 7.75003 5.09995 7.67003C5.17995 7.59003 5.21995 7.49003 5.21995 7.37003V4.79003C5.21995 4.67003 5.17995 4.58003 5.09995 4.52003C5.01995 4.46003 4.93995 4.43003 4.85995 4.43003H2.57995ZM1.85995 3.05003C1.73995 3.05003 1.63995 3.09003 1.55995 3.17003C1.47995 3.25003 1.43995 3.33003 1.43995 3.41003V4.79003C1.43995 4.87003 1.47995 4.95003 1.55995 5.03003C1.63995 5.11003 1.73995 5.15003 1.85995 5.15003H5.57995C5.69995 5.15003 5.78995 5.11003 5.84995 5.03003C5.90995 4.95003 5.93995 4.87003 5.93995 4.79003V3.41003C5.93995 3.33003 5.90995 3.25003 5.84995 3.17003C5.78995 3.09003 5.69995 3.05003 5.57995 3.05003H1.85995ZM2.21995 3.83003H5.21995V4.43003H2.21995V3.83003ZM5.75995 15.53C5.75995 15.65 5.70995 15.76 5.60995 15.86C5.50995 15.96 5.39995 16.01 5.27995 16.01C5.15995 16.01 5.04995 15.96 4.94995 15.86C4.84995 15.76 4.79995 15.64 4.79995 15.5C4.79995 15.36 4.84995 15.25 4.94995 15.17C5.04995 15.09 5.15995 15.05 5.27995 15.05C5.39995 15.05 5.50995 15.09 5.60995 15.17C5.70995 15.25 5.75995 15.37 5.75995 15.53ZM9.17995 4.37003C8.97995 4.37003 8.79995 4.43003 8.63995 4.55003L1.13995 9.71003C0.979951 9.83003 0.879951 10 0.839951 10.22C0.799951 10.44 0.839951 10.63 0.959951 10.79L1.37995 11.39C1.49995 11.55 1.65995 11.65 1.85995 11.69C2.05995 11.73 2.25995 11.69 2.45995 11.57L9.23995 6.83003L16.08 11.57C16.24 11.69 16.43 11.73 16.65 11.69C16.87 11.65 17.04 11.55 17.16 11.39L17.58 10.79C17.7 10.63 17.74 10.44 17.7 10.22C17.66 10 17.56 9.83003 17.4 9.71003L9.89995 4.55003C9.69995 4.43003 9.45995 4.37003 9.17995 4.37003ZM9.23995 5.09003C9.31995 5.09003 9.39995 5.11003 9.47995 5.15003L16.92 10.37L16.5 10.97L9.47995 6.11003C9.31995 5.99003 9.17995 5.99003 9.05995 6.11003L1.97995 10.97L1.55995 10.37L9.05995 5.15003C9.09995 5.11003 9.15995 5.09003 9.23995 5.09003Z" fill="#1A1A1A"/>
</g>
<defs>
<clipPath id="clip0_2_494">
<rect width="18" height="18" fill="white" transform="matrix(1 0 0 -1 0.359985 18.89)"/>
</clipPath>
</defs>
</svg>
