<svg width="36" height="35" viewBox="0 0 36 35" fill="none" xmlns="http://www.w3.org/2000/svg">
<g clip-path="url(#clip0_2_741)">
<path d="M18.9332 21.2333C18.6999 21.2333 18.5054 21.1556 18.3499 21C17.3388 20.0667 16.8721 18.9389 16.9499 17.6167C16.9499 16.6056 17.1832 15.6722 17.6499 14.8167C17.7277 14.5833 17.8638 14.4472 18.0582 14.4083C18.2527 14.3694 18.4471 14.4083 18.6416 14.525C18.836 14.6417 18.9527 14.7972 18.9916 14.9917C19.0304 15.1861 19.011 15.3611 18.9332 15.5167C18.6221 15.9056 18.4277 16.45 18.3499 17.15C18.1943 18.2389 18.5443 19.1722 19.3999 19.95C19.6332 20.1833 19.6916 20.4556 19.5749 20.7667C19.4582 21.0778 19.2054 21.2333 18.8166 21.2333H18.9332ZM5.98322 24.3833C5.12766 24.3056 4.38877 23.9556 3.76655 23.3333C3.06655 22.6333 2.71655 21.7583 2.71655 20.7083C2.71655 19.6583 3.06655 18.7833 3.76655 18.0833L11.1166 10.6167C11.4277 10.3833 11.6999 10.1889 11.9332 10.0333C12.1666 9.87778 12.3804 9.83889 12.5749 9.91667C12.7693 9.99444 12.9054 10.1111 12.9832 10.2667C13.061 10.4222 13.0804 10.5972 13.0416 10.7917C13.0027 10.9861 12.886 11.1417 12.6916 11.2583C12.4971 11.375 12.3221 11.5111 12.1666 11.6667L4.81655 19.1333C4.34989 19.5222 4.11655 20.0472 4.11655 20.7083C4.11655 21.3694 4.34989 21.8944 4.81655 22.2833C5.04989 22.5944 5.361 22.7889 5.74989 22.8667L7.96655 20.65C8.12211 20.4944 8.31655 20.4167 8.54989 20.4167L9.59989 20.65L10.1832 20.0667V18.2C10.1832 18.0444 10.261 17.8889 10.4166 17.7333C10.5721 17.5778 10.7277 17.5 10.8832 17.5L12.8666 17.3833L15.4332 14.8167L15.6666 14.5833C15.7443 14.4278 15.8804 14.3306 16.0749 14.2917C16.2693 14.2528 16.4638 14.2917 16.6582 14.4083C16.8527 14.525 16.9693 14.6806 17.0082 14.875C17.0471 15.0694 16.9888 15.2444 16.8332 15.4L16.4832 15.8667L13.6832 18.6667C13.5277 18.8222 13.3721 18.9 13.2166 18.9H11.6999V20.4167C11.6999 20.65 11.6221 20.8056 11.4666 20.8833L10.4166 22.05C10.261 22.2056 10.0666 22.2444 9.83322 22.1667L8.78322 22.05L6.56655 24.2667C6.411 24.3444 6.21655 24.3833 5.98322 24.3833ZM19.1666 15.9833C17.7666 15.9833 16.4638 15.6722 15.2582 15.05C14.0527 14.4278 13.061 13.5528 12.2832 12.425C11.5054 11.2972 11.0582 10.0333 10.9416 8.63333C10.8249 7.23333 11.0388 5.91111 11.5832 4.66667C12.1277 3.42222 12.9443 2.39167 14.0332 1.575C15.1221 0.758331 16.3666 0.233334 17.7666 0C17.9999 -0.0777779 18.2138 0 18.4082 0.233334C18.6027 0.466667 18.661 0.719444 18.5832 0.991665C18.5054 1.26389 18.311 1.43889 17.9999 1.51667C16.2888 1.75 14.9082 2.56667 13.8582 3.96667C12.8082 5.36667 12.3999 6.94167 12.6332 8.69167C12.8666 10.4417 13.6443 11.8611 14.9666 12.95C16.2888 14.0389 17.8054 14.5444 19.5166 14.4667C21.2277 14.3889 22.686 13.7083 23.8916 12.425C25.0971 11.1417 25.6999 9.64444 25.6999 7.93333C25.6999 6.84444 25.4666 5.83333 24.9999 4.9C24.5332 3.96667 23.8332 3.18889 22.8999 2.56667C22.7443 2.41111 22.6666 2.23611 22.6666 2.04167C22.6666 1.84722 22.7249 1.67222 22.8416 1.51667C22.9582 1.36111 23.1138 1.26389 23.3082 1.225C23.5027 1.18611 23.6777 1.24445 23.8332 1.4C25.2332 2.41111 26.2249 3.73333 26.8082 5.36667C27.3916 7 27.411 8.65278 26.8666 10.325C26.3221 11.9972 25.3499 13.3583 23.9499 14.4083C22.5499 15.4583 20.9554 15.9833 19.1666 15.9833ZM20.7999 1.51667C20.7221 1.51667 20.6249 1.49722 20.5082 1.45833C20.3916 1.41945 20.2749 1.32222 20.1582 1.16667C20.0416 1.01111 20.0027 0.816666 20.0416 0.583332C20.0804 0.349998 20.236 0.174999 20.5082 0.0583344C20.7804 -0.0583344 21.0332 -0.0194435 21.2666 0.174999C21.4999 0.369446 21.5777 0.583332 21.4999 0.816666C21.4221 1.05 21.3249 1.225 21.2082 1.34167C21.0916 1.45833 20.9166 1.51667 20.6832 1.51667H20.7999ZM20.2166 9.33333C19.361 9.33333 18.661 9.06111 18.1166 8.51667C17.5721 7.97222 17.2999 7.29167 17.2999 6.475C17.2999 5.65833 17.5721 4.95833 18.1166 4.375C18.661 3.79167 19.3416 3.5 20.1582 3.5C20.9749 3.5 21.6749 3.79167 22.2582 4.375C22.8416 4.95833 23.1332 5.65833 23.1332 6.475C23.1332 7.29167 22.8416 7.97222 22.2582 8.51667C21.6749 9.06111 20.9943 9.33333 20.2166 9.33333ZM20.2166 5.01667C19.8277 5.01667 19.4777 5.15278 19.1666 5.425C18.8554 5.69722 18.6999 6.02778 18.6999 6.41667C18.6999 6.80556 18.8554 7.15556 19.1666 7.46667C19.4777 7.77778 19.8277 7.93333 20.2166 7.93333C20.6054 7.93333 20.936 7.77778 21.2082 7.46667C21.4804 7.15556 21.6166 6.80556 21.6166 6.41667C21.6166 6.02778 21.4804 5.69722 21.2082 5.425C20.936 5.15278 20.6054 5.01667 20.2166 5.01667ZM29.6666 35C29.511 35 29.3554 34.9222 29.1999 34.7667C29.0443 34.6111 28.9666 34.4556 28.9666 34.3V26.0167V25.6667C28.8888 25.4333 28.9277 25.2194 29.0832 25.025C29.2388 24.8306 29.4332 24.7722 29.6666 24.85H30.4832L22.6666 18.4333L14.7332 24.7333H15.5499C15.861 24.7333 16.0749 24.8306 16.1916 25.025C16.3082 25.2194 16.3666 25.4333 16.3666 25.6667L16.2499 26.0167V34.3C16.2499 34.4556 16.1916 34.6111 16.0749 34.7667C15.9582 34.9222 15.7832 35 15.5499 35C15.3166 35 15.1416 34.9222 15.0249 34.7667C14.9082 34.6111 14.8499 34.4556 14.8499 34.3V26.25H12.6332C12.3221 26.25 12.1082 26.0944 11.9916 25.7833C11.8749 25.4722 11.9332 25.2 12.1666 24.9667L22.1999 16.9167C22.2777 16.8389 22.4138 16.8 22.6082 16.8C22.8027 16.8 22.9777 16.8389 23.1332 16.9167L33.0499 24.9667C33.2832 25.2 33.3416 25.4722 33.2249 25.7833C33.1082 26.0944 32.8943 26.25 32.5832 26.25H30.4832V34.3C30.4832 34.4556 30.4054 34.6111 30.2499 34.7667C30.0943 34.9222 29.8999 35 29.6666 35ZM22.6666 23.45C22.511 23.45 22.3554 23.3722 22.1999 23.2167C22.0443 23.0611 21.9666 22.8861 21.9666 22.6917C21.9666 22.4972 22.0443 22.3222 22.1999 22.1667C24.8443 19.8333 26.0499 17.4611 25.8166 15.05C25.5832 13.1056 24.5332 11.2 22.6666 9.33333C21.7332 8.4 20.7999 7.66111 19.8666 7.11667C19.5554 6.96111 19.3999 6.72778 19.3999 6.41667C19.3999 6.10555 19.536 5.89167 19.8082 5.775C20.0804 5.65833 20.3332 5.67778 20.5666 5.83333C21.6554 6.45555 22.7054 7.31111 23.7166 8.4C25.8166 10.5 26.9832 12.6389 27.2166 14.8167C27.5277 17.7722 26.1666 20.6111 23.1332 23.3333C23.0554 23.4111 22.8999 23.45 22.6666 23.45ZM24.5332 34.7667C24.3777 34.7667 24.2221 34.7083 24.0666 34.5917C23.911 34.475 23.8332 34.3 23.8332 34.0667V29.6333C23.8332 29.3222 23.736 29.0694 23.5416 28.875C23.3471 28.6806 23.0943 28.5833 22.7832 28.5833H21.9666C21.6554 28.5833 21.4027 28.6806 21.2082 28.875C21.0138 29.0694 20.9166 29.3222 20.9166 29.6333V34.0667C20.9166 34.3 20.8388 34.475 20.6832 34.5917C20.5277 34.7083 20.3527 34.7667 20.1582 34.7667C19.9638 34.7667 19.7888 34.7083 19.6332 34.5917C19.4777 34.475 19.3999 34.3 19.3999 34.0667V29.6333C19.3999 28.9333 19.6527 28.3306 20.1582 27.825C20.6638 27.3194 21.2666 27.0667 21.9666 27.0667H22.7832C23.4832 27.0667 24.086 27.3194 24.5916 27.825C25.0971 28.3306 25.311 28.9333 25.2332 29.6333V34.0667C25.311 34.3 25.2721 34.475 25.1166 34.5917C24.961 34.7083 24.7666 34.7667 24.5332 34.7667Z" fill="#1A1A1A"/>
</g>
<defs>
<clipPath id="clip0_2_741">
<rect width="35" height="35" fill="white" transform="matrix(1 0 0 -1 0.5 35)"/>
</clipPath>
</defs>
</svg>
