<svg width="36" height="36" viewBox="0 0 36 36" fill="none" xmlns="http://www.w3.org/2000/svg">
<g clip-path="url(#clip0_2_736)">
<path d="M13.8 22.7432C13.8 22.9766 13.8778 23.1516 14.0333 23.2682C14.1889 23.3849 14.3444 23.4432 14.5 23.4432C14.6556 23.4432 14.8111 23.3849 14.9667 23.2682C15.1222 23.1516 15.2 22.996 15.2 22.8016C15.2 22.6071 15.1222 22.4516 14.9667 22.3349C14.8111 22.2182 14.6556 22.1599 14.5 22.1599C14.3444 22.1599 14.1889 22.2182 14.0333 22.3349C13.8778 22.4516 13.8 22.5877 13.8 22.7432ZM17.3 22.7432C17.3 22.9766 17.3778 23.1516 17.5333 23.2682C17.6889 23.3849 17.8444 23.4432 18 23.4432C18.1556 23.4432 18.3111 23.3849 18.4667 23.2682C18.6222 23.1516 18.7 22.996 18.7 22.8016C18.7 22.6071 18.6222 22.4516 18.4667 22.3349C18.3111 22.2182 18.1556 22.1599 18 22.1599C17.8444 22.1599 17.6889 22.2182 17.5333 22.3349C17.3778 22.4516 17.3 22.5877 17.3 22.7432ZM20.8 22.7432C20.8 22.9766 20.8778 23.1516 21.0333 23.2682C21.1889 23.3849 21.3444 23.4432 21.5 23.4432C21.6556 23.4432 21.8111 23.3849 21.9667 23.2682C22.1222 23.1516 22.2 22.996 22.2 22.8016C22.2 22.6071 22.1222 22.4516 21.9667 22.3349C21.8111 22.2182 21.6556 22.1599 21.5 22.1599C21.3444 22.1599 21.1889 22.2182 21.0333 22.3349C20.8778 22.4516 20.8 22.5877 20.8 22.7432ZM7.03333 23.4432C6.1 23.4432 5.24444 23.1905 4.46667 22.6849C3.68889 22.1793 3.125 21.4988 2.775 20.6432C2.425 19.7877 2.34722 18.8932 2.54167 17.9599C2.73611 17.0266 3.16389 16.2293 3.825 15.5682C4.48611 14.9071 5.26389 14.4988 6.15833 14.3432C7.05278 14.1877 7.92778 14.2849 8.78333 14.6349C9.63889 14.9849 10.3389 15.5488 10.8833 16.3266C11.4278 17.1043 11.7 17.9599 11.7 18.8932C11.7 20.1377 11.2528 21.2071 10.3583 22.1016C9.46389 22.996 8.35556 23.4432 7.03333 23.4432ZM7.03333 15.6266C6.41111 15.6266 5.82778 15.8016 5.28333 16.1516C4.73889 16.5016 4.33056 16.9877 4.05833 17.6099C3.78611 18.2321 3.72778 18.8738 3.88333 19.5349C4.03889 20.196 4.35 20.7405 4.81667 21.1682C5.28333 21.596 5.82778 21.8877 6.45 22.0432C7.07222 22.1988 7.69444 22.1405 8.31667 21.8682C8.93889 21.596 9.425 21.1877 9.775 20.6432C10.125 20.0988 10.3 19.5155 10.3 18.8932C10.3 17.9599 9.98889 17.1821 9.36667 16.5599C8.74444 15.9377 7.96667 15.6266 7.03333 15.6266ZM12.9833 31.7266H1.2C0.966667 31.7266 0.791667 31.6682 0.675 31.5516C0.558333 31.4349 0.5 31.2599 0.5 31.0266V28.6932C0.5 26.9043 1.14167 25.3682 2.425 24.0849C3.70833 22.8016 5.26389 22.1599 7.09167 22.1599C8.91944 22.1599 10.4556 22.8016 11.7 24.0849C12.9444 25.3682 13.6056 26.9043 13.6833 28.6932V31.0266C13.6833 31.2599 13.6056 31.4349 13.45 31.5516C13.2944 31.6682 13.1389 31.7266 12.9833 31.7266ZM1.9 30.3266H12.2833V28.6932C12.2833 27.2932 11.7778 26.0877 10.7667 25.0766C9.75556 24.0655 8.53056 23.5599 7.09167 23.5599C5.65278 23.5599 4.42778 24.0655 3.41667 25.0766C2.40556 26.0877 1.9 27.2932 1.9 28.6932V30.3266ZM28.9667 23.4432C28.0333 23.4432 27.1778 23.1905 26.4 22.6849C25.6222 22.1793 25.0583 21.4988 24.7083 20.6432C24.3583 19.7877 24.2611 18.8932 24.4167 17.9599C24.5722 17.0266 24.9806 16.2293 25.6417 15.5682C26.3028 14.9071 27.1 14.4988 28.0333 14.3432C28.9667 14.1877 29.8611 14.2849 30.7167 14.6349C31.5722 14.9849 32.2528 15.5488 32.7583 16.3266C33.2639 17.1043 33.5167 17.9599 33.5167 18.8932C33.5167 20.1377 33.0694 21.2071 32.175 22.1016C31.2806 22.996 30.2111 23.4432 28.9667 23.4432ZM28.9667 15.6266C28.2667 15.6266 27.6444 15.8016 27.1 16.1516C26.5556 16.5016 26.1667 16.9877 25.9333 17.6099C25.7 18.2321 25.6417 18.8738 25.7583 19.5349C25.875 20.196 26.1667 20.7405 26.6333 21.1682C27.1 21.596 27.6639 21.8877 28.325 22.0432C28.9861 22.1988 29.6083 22.1405 30.1917 21.8682C30.775 21.596 31.2417 21.1877 31.5917 20.6432C31.9417 20.0988 32.1167 19.5155 32.1167 18.8932C32.1167 17.9599 31.8056 17.1821 31.1833 16.5599C30.5611 15.9377 29.8222 15.6266 28.9667 15.6266ZM34.8 31.7266H23.0167C22.8611 31.7266 22.7056 31.6682 22.55 31.5516C22.3944 31.4349 22.3167 31.2599 22.3167 31.0266V28.6932C22.3944 26.9043 23.0556 25.3682 24.3 24.0849C25.5444 22.8016 27.0806 22.1599 28.9083 22.1599C30.7361 22.1599 32.2917 22.8016 33.575 24.0849C34.8583 25.3682 35.5 26.9043 35.5 28.6932V31.0266C35.5 31.2599 35.4417 31.4349 35.325 31.5516C35.2083 31.6682 35.0333 31.7266 34.8 31.7266ZM23.7167 30.3266H34.1V28.6932C34.1 27.2932 33.5944 26.0877 32.5833 25.0766C31.5722 24.0655 30.3472 23.5599 28.9083 23.5599C27.4694 23.5599 26.2444 24.0655 25.2333 25.0766C24.2222 26.0877 23.7167 27.2932 23.7167 28.6932V30.3266ZM14.85 18.6599C14.6944 18.6599 14.5389 18.6016 14.3833 18.4849C14.2278 18.3682 14.15 18.2321 14.15 18.0766V15.9766H13.5667C12.9444 15.9766 12.4 15.7627 11.9333 15.3349C11.4667 14.9071 11.2333 14.3821 11.2333 13.7599V7.1099C11.2333 6.48767 11.4667 5.96267 11.9333 5.53489C12.4 5.10712 12.9444 4.89323 13.5667 4.89323H22.3167C22.9389 4.89323 23.4639 5.10712 23.8917 5.53489C24.3194 5.96267 24.5333 6.48767 24.5333 7.1099V13.7599C24.5333 14.3821 24.3194 14.9071 23.8917 15.3349C23.4639 15.7627 22.9389 15.9766 22.3167 15.9766H17.8833L15.3167 18.5432C15.2389 18.6988 15.0833 18.7377 14.85 18.6599ZM13.5667 6.29323C13.3333 6.29323 13.1194 6.37101 12.925 6.52656C12.7306 6.68212 12.6333 6.87656 12.6333 7.1099V13.7599C12.6333 13.9932 12.7306 14.2071 12.925 14.4016C13.1194 14.596 13.3333 14.6932 13.5667 14.6932H14.85C15.0833 14.6932 15.2583 14.7516 15.375 14.8682C15.4917 14.9849 15.55 15.121 15.55 15.2766V16.3266L17.0667 14.8099C17.2222 14.7321 17.3778 14.6932 17.5333 14.6932H22.3167C22.55 14.6932 22.7639 14.596 22.9583 14.4016C23.1528 14.2071 23.25 13.9932 23.25 13.7599V7.1099C23.25 6.87656 23.1528 6.68212 22.9583 6.52656C22.7639 6.37101 22.55 6.29323 22.3167 6.29323H13.5667Z" fill="#1A1A1A"/>
</g>
<defs>
<clipPath id="clip0_2_736">
<rect width="35" height="35" fill="white" transform="matrix(1 0 0 -1 0.5 35.8101)"/>
</clipPath>
</defs>
</svg>
